<svg id="Layer_1" data-name="Layer 1" xmlns="http://www.w3.org/2000/svg" viewBox="0 0 486.0981 175.0803"><defs><style>.cls-1{fill:#fff;}.cls-2{fill:#0d75bc;}</style></defs><title>CODE</title><path class="cls-1" d="M150.3193,300.4941a12.6106,12.6106,0,0,1,3.72-4.1626,16.2484,16.2484,0,0,1,5.3144-2.4365,23.7968,23.7968,0,0,1,6.1118-.7969,22.7131,22.7131,0,0,1,6.688,1.0186,18.793,18.793,0,0,1,5.9785,3.0557V312.585h4.8721v9.7431H158.6455V332.957h-9.7436V306.3838A11.8319,11.8319,0,0,1,150.3193,300.4941Zm18.07,3.1446q-1.1521-.3546-2.17-.5762a8.6638,8.6638,0,0,0-1.816-.2217,7.4731,7.4731,0,0,0-4.0742,1.0635,3.2938,3.2938,0,0,0-1.6831,2.9228v5.7579h9.7437Z" transform="translate(-148.9019 -210.0998)"/><path class="cls-1" d="M181.0972,313.3379a2.5806,2.5806,0,0,1,1.9043-.7529h4.8715V294.87a1.8167,1.8167,0,0,1,1.7715-1.7715h6.2007a1.8158,1.8158,0,0,1,1.7715,1.7715v8.68l8.8579-7.7944a11.8946,11.8946,0,0,1,3.0112-1.9483,8.8556,8.8556,0,0,1,3.6319-.709h12.8437a7.1063,7.1063,0,0,1,7.0865,7.0855V312.585h4.8715v9.7431H183.0015a2.5753,2.5753,0,0,1-2.6573-2.6572v-4.4287A2.5807,2.5807,0,0,1,181.0972,313.3379Zm42.207-.7529v-9.7442H212.5864l-13.021,9.7442Z" transform="translate(-148.9019 -210.0998)"/><path class="cls-1" d="M236.0112,313.3379a2.5808,2.5808,0,0,1,1.9043-.7529h20.55q-.7968-1.86-1.5942-4.0752a29.7076,29.7076,0,0,0-1.86-4.1631,12.4014,12.4014,0,0,0-2.5244-3.2774,5.1368,5.1368,0,0,0-3.5874-1.3281,8.2534,8.2534,0,0,0-2.9228.5313,11.4409,11.4409,0,0,0-2.7461,1.5058l-2.6572-6.9087a21.9055,21.9055,0,0,1,5.3149-3.1884,14.6578,14.6578,0,0,1,5.7573-1.24,9.2487,9.2487,0,0,1,6.5547,2.3028,20.9748,20.9748,0,0,1,4.252,5.6689,65.0482,65.0482,0,0,1,3.2329,7.2183,39.0434,39.0434,0,0,0,3.41,6.9541h4.2515v9.7431H237.9155a2.5752,2.5752,0,0,1-2.6572-2.6572v-4.4287A2.581,2.581,0,0,1,236.0112,313.3379Zm12.1792-34.146a5.7546,5.7546,0,0,1,6.9092,0,3.5434,3.5434,0,0,1,0,5.6689,5.7582,5.7582,0,0,1-6.9092,0,3.5434,3.5434,0,0,1,0-5.6689Z" transform="translate(-148.9019 -210.0998)"/><path class="cls-1" d="M302.9272,289.5552a20.6232,20.6232,0,0,1,6.2891.93,13.7741,13.7741,0,0,1,5.0938,2.8789,13.4123,13.4123,0,0,1,3.41,4.96,18.8026,18.8026,0,0,1,1.24,7.1743v15.0586a1.8173,1.8173,0,0,1-1.7714,1.7715H291.0581V312.585h18.1582v-7.087q0-3.5419-2.3916-4.96a10.7422,10.7422,0,0,0-5.58-1.417,23.36,23.36,0,0,0-3.1445.2217,21.0637,21.0637,0,0,0-3.1445.664l-2.126-8.68A31.9554,31.9554,0,0,1,302.9272,289.5552Z" transform="translate(-148.9019 -210.0998)"/><path class="cls-1" d="M337.9126,274.1421a1.7,1.7,0,0,1,.5312,1.24v45.1743a1.8154,1.8154,0,0,1-1.7714,1.7715h-6.2a1.8154,1.8154,0,0,1-1.7715-1.7715V275.3823a1.8156,1.8156,0,0,1,1.7715-1.7715h6.2A1.7028,1.7028,0,0,1,337.9126,274.1421Z" transform="translate(-148.9019 -210.0998)"/><path class="cls-1" d="M350.7554,319.76a8.5531,8.5531,0,0,1-2.5684-6.2891v-5.3154a16.2007,16.2007,0,0,1,1.2842-6.7315,13.3032,13.3032,0,0,1,8.3262-7.44,19.3427,19.3427,0,0,1,5.8906-.8858,23.7968,23.7968,0,0,1,7.042,1.1075,23.2217,23.2217,0,0,1,6.6875,3.3213V312.585h4.8711v9.7431h-4.8711a20.22,20.22,0,0,1-1.0635,6.9092,13.2881,13.2881,0,0,1-2.9228,4.8272,11.2491,11.2491,0,0,1-4.3848,2.79,16.3327,16.3327,0,0,1-5.4473.8857,26.7344,26.7344,0,0,1-6.6875-.93,32.3137,32.3137,0,0,1-6.9531-2.7011l2.5684-7.2637q1.86.709,4.1191,1.3281a16.5013,16.5013,0,0,0,4.3848.62,7.9362,7.9362,0,0,0,4.6943-1.373q1.9482-1.3725,1.9482-5.0928H357.0444A8.5552,8.5552,0,0,1,350.7554,319.76Zm16.9179-16.21a14.29,14.29,0,0,0-4.163-.709,6.0618,6.0618,0,0,0-3.9415,1.3291,4.8259,4.8259,0,0,0-1.6386,3.9854v4.43h9.7431Z" transform="translate(-148.9019 -210.0998)"/><path class="cls-1" d="M380.3813,321.5752a2.5811,2.5811,0,0,1-.7529-1.9043v-4.4287a2.5752,2.5752,0,0,1,2.6572-2.6572h21.7012v-4.6065q0-3.8085-2.4355-5.3584a10.4057,10.4057,0,0,0-5.7129-1.5508,17.36,17.36,0,0,0-5.8467.9746q-.2652-.5316-.708-1.7275t-.9307-2.5239q-.4863-1.3287-.93-2.48-.4438-1.1529-.7089-1.6836l21.082-21.17,6.9082,6.9092-12.8438,12.9326a14.6115,14.6115,0,0,1,8.5479,4.7383q3.3222,3.7638,3.3223,10.9389v12.5781a1.8174,1.8174,0,0,1-1.7715,1.7715H382.2856A2.5813,2.5813,0,0,1,380.3813,321.5752Z" transform="translate(-148.9019 -210.0998)"/><path class="cls-1" d="M432.6836,274.1421a1.7,1.7,0,0,1,.5312,1.24v45.1743a1.8154,1.8154,0,0,1-1.7714,1.7715h-6.2a1.8154,1.8154,0,0,1-1.7715-1.7715V275.3823a1.8156,1.8156,0,0,1,1.7715-1.7715h6.2A1.7028,1.7028,0,0,1,432.6836,274.1421Z" transform="translate(-148.9019 -210.0998)"/><rect class="cls-1" x="311.0178" width="175.0803" height="175.0803" rx="47.4351" ry="47.4351"/><path class="cls-2" d="M545.7337,275.8486l-37.9625-43.8038h41.1014l37.9625,43.8038-37.9625,43.6565H507.7712Z" transform="translate(-148.9019 -210.0998)"/><path class="cls-2" d="M586.8351,363.2352H545.7337l-37.9625-43.6565,37.9625-43.8038h41.1014l-37.9625,43.8038Z" transform="translate(-148.9019 -210.0998)"/><circle class="cls-2" cx="435.9022" cy="109.4052" r="18.1695"/><circle class="cls-2" cx="361.2137" cy="62.5303" r="18.1695"/></svg>